<?xml version="1.0" encoding="utf-8"?>
<!-- Generator: Adobe Illustrator 15.0.2, SVG Export Plug-In . SVG Version: 6.00 Build 0)  -->
<!DOCTYPE svg PUBLIC "-//W3C//DTD SVG 1.1//EN" "http://www.w3.org/Graphics/SVG/1.1/DTD/svg11.dtd">
<svg version="1.1" id="レイヤー_1" xmlns="http://www.w3.org/2000/svg" xmlns:xlink="http://www.w3.org/1999/xlink" x="0px"
	 y="0px" width="111px" height="28px" viewBox="0 0 111 28" enable-background="new 0 0 111 28" xml:space="preserve">
<g transform="translate(-1253.4543,-787.54021)">
	<path fill="#040000" d="M1268.795,790.769v-2.062c0-0.646-0.522-1.167-1.167-1.167c-0.646,0-1.167,0.522-1.167,1.167v2.062
		c-6.354,0.59-11.345,5.951-11.345,12.457c0,5.949,4.229,11.107,10.055,12.27c0.526,0.105,1.039-0.235,1.144-0.764
		c0.105-0.527-0.237-1.039-0.764-1.145c-4.919-0.98-8.489-5.336-8.489-10.361c0-5.432,4.12-9.919,9.399-10.501v3.756
		c-3.222,0.556-5.68,3.368-5.68,6.745c0,2.768,1.65,5.246,4.204,6.316c0.496,0.209,1.065-0.025,1.273-0.521
		c0.207-0.495-0.026-1.065-0.521-1.274c-1.828-0.767-3.011-2.541-3.011-4.521c0-2.702,2.199-4.901,4.901-4.901
		c2.703,0,4.901,2.199,4.901,4.901c0,1.98-1.183,3.756-3.01,4.521c-0.496,0.209-0.729,0.778-0.521,1.274
		c0.208,0.494,0.777,0.729,1.272,0.521c2.554-1.068,4.203-3.549,4.203-6.316c0-3.377-2.459-6.189-5.68-6.745v-3.756
		c5.278,0.583,9.399,5.069,9.399,10.501c0,5.025-3.57,9.383-8.489,10.361c-0.526,0.105-0.869,0.617-0.764,1.145
		c0.105,0.528,0.617,0.869,1.146,0.764c5.826-1.161,10.055-6.319,10.055-12.27C1280.139,796.72,1275.149,791.359,1268.795,790.769
		L1268.795,790.769z"/>
</g>
<g>
	<g enable-background="new    ">
		<path fill="#898989" d="M51.036,10.191c0.6,2.16,1.872,4.488,3.457,6.288c1.775,2.017,3.768,3.385,6.625,4.561
			c-0.816,0.96-1.152,1.464-1.753,2.76c-2.567-1.319-4.224-2.544-5.928-4.392c-1.561-1.656-2.736-3.577-3.625-5.809
			c-0.72,2.472-1.992,4.536-3.912,6.433c-1.632,1.607-3.36,2.735-5.737,3.768c-0.408-0.912-0.912-1.656-1.68-2.52
			c1.729-0.696,2.688-1.2,3.889-2.04c3.216-2.28,4.824-4.969,5.4-9.049h-5.665c-1.512,0-2.208,0.048-3,0.168V7.311
			c0.744,0.12,1.608,0.168,3.024,0.168h5.88c0.048-1.2,0.072-1.584,0.072-2.832c0-1.008-0.072-1.729-0.168-2.4h3.168
			c-0.12,0.84-0.144,1.2-0.168,2.809c0,0.984-0.024,1.536-0.048,2.424h6.361c1.367,0,2.208-0.048,3.023-0.168v3.049
			c-0.959-0.12-1.68-0.168-3-0.168H51.036z"/>
		<path fill="#898989" d="M69.083,12.495c-0.815,0-1.416,0.048-2.04,0.12v-1.704c-1.152,1.176-1.752,1.704-3,2.664
			c-0.408-0.816-0.984-1.536-1.849-2.353c2.977-2.063,4.776-4.032,6.313-6.889c0.575-1.056,0.84-1.704,0.959-2.424l2.881,1.032
			c-0.24,0.36-0.36,0.576-0.648,1.224c-0.888,1.896-2.305,4.033-3.864,5.833c0.647,0.048,0.769,0.048,1.248,0.048h8.833
			c0.576,0,0.912,0,1.488-0.023c-1.68-1.896-2.929-3.793-3.961-6.025c-0.096-0.239-0.336-0.72-0.504-1.008l2.664-1.032
			c0.168,0.624,0.408,1.128,0.937,2.089c1.584,2.88,3.648,5.04,6.648,6.96c-1.008,1.177-1.2,1.44-1.824,2.593
			c-1.319-0.984-1.92-1.488-2.976-2.521c0,0.336,0,0.408,0,0.816c0,4.968-0.408,8.761-1.009,10.032
			c-0.528,1.057-1.392,1.393-3.528,1.393c-0.48,0-0.863-0.024-2.473-0.097c-0.119-1.056-0.287-1.632-0.719-2.808
			c1.151,0.191,2.207,0.312,2.903,0.312c0.888,0,1.152-0.096,1.368-0.456c0.36-0.72,0.744-3.888,0.744-6.384v-0.528
			c0-0.096,0-0.216,0-0.36c0-0.144,0-0.312,0-0.504h-4.608c-0.192,2.496-0.72,4.248-1.872,6.145c-1.32,2.208-3.264,3.864-6.097,5.28
			c-0.456-0.888-0.84-1.416-1.752-2.352c1.488-0.553,2.472-1.152,3.72-2.209c1.681-1.439,2.736-3.288,3.145-5.472
			c0.072-0.408,0.096-0.696,0.145-1.393H69.083z"/>
		<path fill="#898989" d="M94.355,18.88c-1.752,2.304-3.217,3.576-5.568,4.872c-0.744-0.96-1.032-1.248-1.849-1.968
			c1.345-0.601,2.112-1.057,3.12-1.849c0.912-0.72,1.393-1.248,2.137-2.231L94.355,18.88z M99.035,21.424
			c0,1.296,0.049,2.017,0.145,2.688h-2.928c0.119-0.696,0.168-1.464,0.168-2.688v-4.057h-5.904c-1.057,0-1.801,0.024-2.497,0.097
			c0.097-0.672,0.12-1.272,0.12-2.521V6.566c0-1.151-0.023-1.704-0.145-2.4h2.761c-0.071,0.721-0.097,1.225-0.097,2.377v8.593
			h15.122c1.296,0,1.944-0.024,2.664-0.12v2.496c-0.792-0.096-1.464-0.145-2.64-0.145h-6.77V21.424z M105.948,11.896
			c0,0.888,0.024,1.632,0.097,2.184c-0.625-0.072-1.417-0.096-2.354-0.096h-8.688c-0.961,0-1.633,0.023-2.354,0.096
			c0.072-0.624,0.097-1.296,0.097-2.232V4.694c0-0.815-0.024-1.512-0.097-2.112c0.744,0.072,1.393,0.097,2.449,0.097h8.641
			c0.96,0,1.584-0.024,2.305-0.097c-0.072,0.648-0.097,1.2-0.097,2.185V11.896z M95.243,5.919h8.161V4.767h-8.161V5.919z
			 M95.243,8.943h8.161V7.791h-8.161V8.943z M95.243,12.039h8.161v-1.224h-8.161V12.039z M103.164,17.704
			c1.872,1.991,3.024,2.784,5.616,3.888c-0.792,0.84-1.08,1.225-1.728,2.185c-1.465-0.816-2.113-1.225-3.049-1.992
			c-1.152-0.937-1.8-1.584-2.832-2.784L103.164,17.704z"/>
	</g>
</g>
</svg>
